# xmcd CD database file
#
# Track frame offsets:
#	150
#	925
#	19110
#	34508
#	45968
#	66473
#	90825
#	127550
#	128713
#	153615
#	175598
#	212645
#	232865
#	253538
#	284490
#	330853
#
# Disc length: 4723 seconds
#
# Revision: 0
# Processed by: cddbd v1.4b41PL2 Copyright (c) Steve Scherf et al.
# Submitted via: Feurio! 1.61 - http://www.feurio.com
#
DISCID=b5127110
DTITLE=Albatros - Everybody´s Got The Blues
DYEAR=1990
DGENRE=
TTITLE0=Intro
TTITLE1=Too Late Now
TTITLE2=Fine, Fine, Fine
TTITLE3=Feel So Good
TTITLE4=I Don´t Know Your Name
TTITLE5=Move It On Over
TTITLE6=Prisoners Of Conscience
TTITLE7=Intro
TTITLE8=Someone I Used To Know
TTITLE9=Never Say Die
TTITLE10=Full Moon On Main Street
TTITLE11=Freddy Wants A Cadillac
TTITLE12=Talk To Your Daugter
TTITLE13=Sweet Little Angel
TTITLE14=Night Time People
TTITLE15=Tempted
EXTD=Blue Horizon Records, YEAR:1990/1993
EXTT0=
EXTT1=
EXTT2=
EXTT3=
EXTT4=
EXTT5=
EXTT6=
EXTT7=
EXTT8=
EXTT9=
EXTT10=
EXTT11=
EXTT12=
EXTT13=
EXTT14=
EXTT15=
PLAYORDER=
